<mxfile host="app.diagrams.net" agent="Mozilla/5.0 (Windows NT 10.0; Win64; x64) AppleWebKit/537.36 (KHTML, like Gecko) Chrome/137.0.0.0 Safari/537.36 Edg/137.0.0.0" version="27.1.6">
  <diagram name="Page-1" id="okLBEH4IE30d0lmLBVzO">
    <mxGraphModel dx="778" dy="506" grid="1" gridSize="10" guides="1" tooltips="1" connect="1" arrows="1" fold="1" page="1" pageScale="1" pageWidth="850" pageHeight="1100" math="0" shadow="0">
      <root>
        <mxCell id="0" />
        <mxCell id="1" parent="0" />
        <mxCell id="DvjoMet77GS66EDK2XJN-14" style="edgeStyle=orthogonalEdgeStyle;rounded=0;orthogonalLoop=1;jettySize=auto;html=1;exitX=1;exitY=0.5;exitDx=0;exitDy=0;entryX=0;entryY=0.5;entryDx=0;entryDy=0;labelBackgroundColor=none;fontColor=default;" edge="1" parent="1" source="DvjoMet77GS66EDK2XJN-1" target="DvjoMet77GS66EDK2XJN-2">
          <mxGeometry relative="1" as="geometry" />
        </mxCell>
        <mxCell id="DvjoMet77GS66EDK2XJN-1" value="Literature and repository search and screening" style="whiteSpace=wrap;html=1;aspect=fixed;labelBackgroundColor=none;" vertex="1" parent="1">
          <mxGeometry x="200" y="270" width="80" height="80" as="geometry" />
        </mxCell>
        <mxCell id="DvjoMet77GS66EDK2XJN-15" style="edgeStyle=orthogonalEdgeStyle;rounded=0;orthogonalLoop=1;jettySize=auto;html=1;exitX=1;exitY=0.5;exitDx=0;exitDy=0;entryX=0;entryY=0.5;entryDx=0;entryDy=0;labelBackgroundColor=none;fontColor=default;" edge="1" parent="1" source="DvjoMet77GS66EDK2XJN-2" target="DvjoMet77GS66EDK2XJN-3">
          <mxGeometry relative="1" as="geometry" />
        </mxCell>
        <mxCell id="DvjoMet77GS66EDK2XJN-2" value="Data extraction and profiling of studies/repo" style="whiteSpace=wrap;html=1;aspect=fixed;labelBackgroundColor=none;" vertex="1" parent="1">
          <mxGeometry x="310" y="270" width="80" height="80" as="geometry" />
        </mxCell>
        <mxCell id="DvjoMet77GS66EDK2XJN-21" style="edgeStyle=orthogonalEdgeStyle;rounded=0;orthogonalLoop=1;jettySize=auto;html=1;exitX=1;exitY=0.5;exitDx=0;exitDy=0;entryX=0;entryY=0.5;entryDx=0;entryDy=0;fontColor=default;labelBackgroundColor=none;" edge="1" parent="1" source="DvjoMet77GS66EDK2XJN-3" target="DvjoMet77GS66EDK2XJN-11">
          <mxGeometry relative="1" as="geometry" />
        </mxCell>
        <mxCell id="DvjoMet77GS66EDK2XJN-22" style="edgeStyle=orthogonalEdgeStyle;rounded=0;orthogonalLoop=1;jettySize=auto;html=1;exitX=1;exitY=0.5;exitDx=0;exitDy=0;entryX=0;entryY=0.5;entryDx=0;entryDy=0;fontColor=default;labelBackgroundColor=none;" edge="1" parent="1" source="DvjoMet77GS66EDK2XJN-3" target="DvjoMet77GS66EDK2XJN-20">
          <mxGeometry relative="1" as="geometry" />
        </mxCell>
        <mxCell id="DvjoMet77GS66EDK2XJN-3" value="Evaluation and scoring" style="whiteSpace=wrap;html=1;aspect=fixed;labelBackgroundColor=none;" vertex="1" parent="1">
          <mxGeometry x="420" y="270" width="80" height="80" as="geometry" />
        </mxCell>
        <mxCell id="DvjoMet77GS66EDK2XJN-23" style="edgeStyle=orthogonalEdgeStyle;rounded=0;orthogonalLoop=1;jettySize=auto;html=1;exitX=0.5;exitY=1;exitDx=0;exitDy=0;entryX=0.5;entryY=0;entryDx=0;entryDy=0;fontColor=default;labelBackgroundColor=none;" edge="1" parent="1" source="DvjoMet77GS66EDK2XJN-11" target="DvjoMet77GS66EDK2XJN-20">
          <mxGeometry relative="1" as="geometry" />
        </mxCell>
        <mxCell id="DvjoMet77GS66EDK2XJN-24" style="edgeStyle=orthogonalEdgeStyle;rounded=0;orthogonalLoop=1;jettySize=auto;html=1;exitX=1;exitY=0.5;exitDx=0;exitDy=0;entryX=0.5;entryY=0;entryDx=0;entryDy=0;fontColor=default;labelBackgroundColor=none;" edge="1" parent="1" source="DvjoMet77GS66EDK2XJN-11" target="DvjoMet77GS66EDK2XJN-12">
          <mxGeometry relative="1" as="geometry" />
        </mxCell>
        <mxCell id="DvjoMet77GS66EDK2XJN-11" value="Technical testing of repository and validation" style="whiteSpace=wrap;html=1;aspect=fixed;labelBackgroundColor=none;" vertex="1" parent="1">
          <mxGeometry x="550" y="210" width="80" height="80" as="geometry" />
        </mxCell>
        <mxCell id="DvjoMet77GS66EDK2XJN-12" value="Repository modification and use" style="whiteSpace=wrap;html=1;aspect=fixed;labelBackgroundColor=none;" vertex="1" parent="1">
          <mxGeometry x="660" y="270" width="80" height="80" as="geometry" />
        </mxCell>
        <mxCell id="DvjoMet77GS66EDK2XJN-20" value="Repository analysis and statistics" style="whiteSpace=wrap;html=1;aspect=fixed;labelBackgroundColor=none;" vertex="1" parent="1">
          <mxGeometry x="550" y="320" width="80" height="80" as="geometry" />
        </mxCell>
      </root>
    </mxGraphModel>
  </diagram>
</mxfile>
